<svg width="24" height="24" viewBox="0 0 24 24" fill="none" xmlns="http://www.w3.org/2000/svg">
<path d="M19 12C19 12.2944 18.7765 12.5333 18.5 12.5333H10.5V11.4667H18.5C18.7765 11.4667 19 11.7056 19 12ZM5.5 6.66667H13V5.6H5.5C5.22355 5.6 5 5.83893 5 6.13333C5 6.42774 5.22355 6.66667 5.5 6.66667ZM19 6.13333C19 5.83893 18.7765 5.6 18.5 5.6H17V6.66667H18.5C18.7765 6.66667 19 6.42774 19 6.13333ZM5.5 12.5333H6.5V11.4667H5.5C5.22355 11.4667 5 11.7056 5 12C5 12.2944 5.22355 12.5333 5.5 12.5333ZM18.5 17.3333H16.5V18.4H18.5C18.7765 18.4 19 18.1611 19 17.8667C19 17.5723 18.7765 17.3333 18.5 17.3333ZM5 17.8667C5 18.1611 5.22355 18.4 5.5 18.4H12.5V17.3333H5.5C5.22355 17.3333 5 17.5723 5 17.8667ZM14.5 8.26667H15.5C16.0515 8.26667 16.5 7.78822 16.5 7.2V5.06667C16.5 4.47845 16.0515 4 15.5 4H14.5C13.9485 4 13.5 4.47845 13.5 5.06667V7.2C13.5 7.78822 13.9485 8.26667 14.5 8.26667ZM8 9.86667C7.44854 9.86667 7 10.3451 7 10.9333V13.0667C7 13.6549 7.44854 14.1333 8 14.1333H9C9.55146 14.1333 10 13.6549 10 13.0667V10.9333C10 10.3451 9.55146 9.86667 9 9.86667H8ZM15 15.7333H14C13.4485 15.7333 13 16.2118 13 16.8V18.9333C13 19.5216 13.4485 20 14 20H15C15.5515 20 16 19.5216 16 18.9333V16.8C16 16.2118 15.5515 15.7333 15 15.7333Z" fill="#323232"/>
<path d="M19 12C19 12.2944 18.7765 12.5333 18.5 12.5333H10.5V11.4667H18.5C18.7765 11.4667 19 11.7056 19 12ZM5.5 6.66667H13V5.6H5.5C5.22355 5.6 5 5.83893 5 6.13333C5 6.42774 5.22355 6.66667 5.5 6.66667ZM19 6.13333C19 5.83893 18.7765 5.6 18.5 5.6H17V6.66667H18.5C18.7765 6.66667 19 6.42774 19 6.13333ZM5.5 12.5333H6.5V11.4667H5.5C5.22355 11.4667 5 11.7056 5 12C5 12.2944 5.22355 12.5333 5.5 12.5333ZM18.5 17.3333H16.5V18.4H18.5C18.7765 18.4 19 18.1611 19 17.8667C19 17.5723 18.7765 17.3333 18.5 17.3333ZM5 17.8667C5 18.1611 5.22355 18.4 5.5 18.4H12.5V17.3333H5.5C5.22355 17.3333 5 17.5723 5 17.8667ZM14.5 8.26667H15.5C16.0515 8.26667 16.5 7.78822 16.5 7.2V5.06667C16.5 4.47845 16.0515 4 15.5 4H14.5C13.9485 4 13.5 4.47845 13.5 5.06667V7.2C13.5 7.78822 13.9485 8.26667 14.5 8.26667ZM8 9.86667C7.44854 9.86667 7 10.3451 7 10.9333V13.0667C7 13.6549 7.44854 14.1333 8 14.1333H9C9.55146 14.1333 10 13.6549 10 13.0667V10.9333C10 10.3451 9.55146 9.86667 9 9.86667H8ZM15 15.7333H14C13.4485 15.7333 13 16.2118 13 16.8V18.9333C13 19.5216 13.4485 20 14 20H15C15.5515 20 16 19.5216 16 18.9333V16.8C16 16.2118 15.5515 15.7333 15 15.7333Z" fill="black" fill-opacity="0.2"/>
</svg>
