<svg width="134" height="71" viewBox="0 0 134 71" fill="none" xmlns="http://www.w3.org/2000/svg">
<g clip-path="url(#clip0_713_17624)">
<path fill-rule="evenodd" clip-rule="evenodd" d="M63.8754 44.3967H63.8755H63.8756C65.3384 44.4014 66.801 44.406 68.2635 44.3806C69.3542 44.3622 69.6215 44.5901 69.3258 45.738C65.9002 58.6581 52.9677 69.532 39.5625 70.8022C33.7341 71.5232 27.8186 70.7596 22.3619 68.5817C16.9053 66.4039 12.0833 62.8821 8.34113 58.3413C4.16469 53.5784 1.47962 47.6863 0.621362 41.4011C-2.98464 23.5594 9.57874 4.7323 27.6539 0.821092C33.2675 -0.382828 39.0838 -0.256006 44.64 1.19145C46.0171 1.60961 47.3712 2.10017 48.6969 2.66108C47.9607 3.7103 47.4911 4.92411 47.329 6.19692C47.4916 4.92396 47.9618 3.71014 48.6986 2.66108C53.5548 4.57555 57.9185 7.56332 61.4656 11.4024C65.0127 15.2415 67.6519 19.8332 69.1872 24.8363C69.6398 26.1719 69.4394 26.5355 68.0063 26.4903C66.427 26.4403 64.8462 26.4483 63.2653 26.4564H63.2652H63.2652C61.8785 26.4634 60.4918 26.4704 59.1057 26.4383C57.965 26.4115 57.4957 26.6428 57.5157 27.9348C57.5836 32.9565 57.5836 37.9776 57.5157 42.9981C57.499 44.1863 57.8882 44.4477 58.9922 44.4225C60.6203 44.3863 62.248 44.3915 63.8754 44.3967ZM51.0085 29.9792C52.4583 30.0613 52.8023 29.5938 52.8458 28.1594C52.8959 26.5339 52.2061 26.3864 50.915 26.4283C49.5418 26.4752 48.1653 26.4458 46.7883 26.4165H46.7883H46.7882H46.7881H46.788C46.1956 26.4039 45.6031 26.3913 45.0108 26.3847C44.5806 26.3929 44.1491 26.4101 43.7174 26.4274C42.7277 26.467 41.7365 26.5067 40.755 26.4367C39.4105 26.3412 39.1099 26.8589 39.1249 28.1241C39.1673 31.9235 39.1583 35.7238 39.1492 39.5243V39.5244V39.5245C39.1454 41.118 39.1417 42.7116 39.1417 44.3052L34.9828 44.3655C34.9663 43.9322 34.9798 43.4983 35.0229 43.0668C35.3018 41.3794 34.6554 40.8297 32.9401 40.9386C31.254 41.0467 29.5598 41.0242 27.754 41.0003H27.7539H27.7537C26.9552 40.9897 26.1349 40.9789 25.2838 40.9789C25.4846 40.7281 25.6621 40.5043 25.8244 40.2996C26.1699 39.8641 26.4472 39.5144 26.7369 39.1724C27.3702 38.431 28.0015 37.688 28.6329 36.9449L28.6329 36.9449L28.633 36.9448C30.5261 34.7168 32.4192 32.4888 34.3631 30.306C34.7375 29.8507 34.9867 29.3051 35.086 28.7234C35.1853 28.1417 35.1313 27.544 34.9294 26.9897C34.7227 26.1751 34.015 26.2968 33.3522 26.4108C33.115 26.4516 32.8836 26.4914 32.6829 26.4869C31.0294 26.456 29.3748 26.4593 27.7203 26.4627H27.7203H27.7203C25.79 26.4666 23.8599 26.4704 21.9317 26.4199C20.6089 26.3847 20.3767 26.931 20.4602 28.0504C20.4716 28.2072 20.4729 28.365 20.4742 28.5189V28.5189V28.519C20.4806 29.3113 20.4863 30.0022 21.8666 29.9306C23.6393 29.8378 25.4209 29.8566 27.3472 29.877H27.3472H27.3473C28.2031 29.8861 29.0874 29.8954 30.0122 29.8954C29.1522 30.9047 28.3183 31.8943 27.4994 32.8661L27.4988 32.8668C25.3661 35.3975 23.3352 37.8075 21.2101 40.1309C20.4937 40.8657 20.0906 41.8513 20.0861 42.8792C20.0844 43.7975 20.1128 44.4829 21.449 44.4493C24.6946 44.3685 27.9401 44.3702 31.1857 44.3718C32.4497 44.3725 33.7138 44.3731 34.9778 44.3689L39.1366 44.3086C40.3001 44.317 41.4636 44.3228 42.6271 44.3285H42.6273H42.6275C45.6527 44.3436 48.6776 44.3587 51.7017 44.4192C52.9339 44.4432 52.8614 43.768 52.7917 43.1188C52.7741 42.954 52.7565 42.7908 52.7606 42.6412C52.7638 42.5179 52.7767 42.3878 52.7896 42.2565V42.2565V42.2564C52.8571 41.5723 52.9278 40.8564 51.6583 40.9085C50.3674 40.9613 49.0734 40.9278 47.7795 40.8944C47.225 40.8801 46.6706 40.8657 46.1165 40.8582C45.8777 40.9019 45.6369 40.9332 45.3949 40.952C43.1919 41.0207 42.3618 39.7907 43.09 37.6692C43.2724 37.1356 43.6251 37.1397 43.993 37.144C44.0108 37.1442 44.0287 37.1444 44.0466 37.1445C44.0618 37.1447 44.077 37.1447 44.0922 37.1447C44.6503 37.1507 45.2092 37.181 45.7678 37.2112L45.7691 37.2113C45.9991 37.2237 46.2291 37.2362 46.4589 37.2469C46.9746 37.2379 47.4903 37.2225 48.0059 37.2071L48.0061 37.2071C49.2088 37.1712 50.4109 37.1354 51.6115 37.1799C52.9135 37.228 52.8494 36.5003 52.7878 35.8016C52.772 35.6229 52.7564 35.4461 52.7639 35.2847C52.7687 35.1807 52.7783 35.0733 52.7878 34.9653L52.7879 34.9652C52.8514 34.2493 52.9173 33.5063 51.6315 33.5703C50.5182 33.6266 49.4008 33.5951 48.2839 33.5637L48.2834 33.5637L48.2828 33.5637C47.8032 33.5502 47.3237 33.5367 46.8447 33.5301C46.6963 33.5393 46.5479 33.5507 46.3995 33.562H46.3994H46.3994C46.0601 33.588 45.7208 33.6139 45.3816 33.6139C43.1401 33.6307 42.3835 32.6638 43.1201 30.5188C43.4085 29.678 44.0431 29.8076 44.6669 29.935C44.8812 29.9788 45.0941 30.0223 45.2914 30.0261C45.863 30.0181 46.4352 30.001 47.0074 29.9839C48.3431 29.944 49.6791 29.9041 51.0085 29.9792ZM66.124 37.0827H68.3421C70.6436 37.066 71.3301 38.1318 70.4933 40.3169C70.2611 40.9336 69.8252 40.9336 69.3241 40.9336C68.716 40.9323 68.1081 40.928 67.5004 40.9237L67.4992 40.9237C65.8226 40.9118 64.1481 40.8999 62.4763 40.9504C61.1217 40.9923 61.2871 40.0689 61.424 39.3416C61.4683 39.119 61.4219 38.8465 61.3748 38.5699C61.2567 37.8765 61.1342 37.1574 62.4262 37.1347C63.2477 37.1235 64.0692 37.1272 64.8907 37.131H64.8914C65.3023 37.1328 65.7131 37.1347 66.124 37.1347V37.0827ZM69.0018 29.9122C67.0335 30.0238 65.0604 30.0205 63.0926 29.9021C61.6745 29.8117 61.3572 30.2976 61.3405 31.665C61.3205 33.1615 61.6579 33.8267 63.2563 33.6189C64.2374 33.5474 65.222 33.539 66.2042 33.5938V33.572C66.5327 33.572 66.8611 33.5737 67.1896 33.5754C67.8466 33.5787 68.5035 33.5821 69.1605 33.572C69.2795 33.5696 69.4069 33.576 69.5354 33.5824H69.5355C70.1992 33.6156 70.8942 33.6504 70.6269 32.4811C70.5681 32.2177 70.5755 31.9135 70.583 31.6086V31.6085C70.6047 30.7182 70.6265 29.8211 69.0018 29.9122ZM82.0562 29.761C83.5394 29.761 84.8355 30.0559 85.9445 30.6458C87.0535 31.2356 87.9087 32.0668 88.51 33.1393C89.1246 34.1984 89.4319 35.425 89.4319 36.8193C89.4319 38.2001 89.1246 39.4267 88.51 40.4992C87.9087 41.5717 87.0469 42.4029 85.9245 42.9927C84.8154 43.5826 83.526 43.8775 82.0562 43.8775H76.785V29.761H82.0562ZM81.8358 40.9014C83.1319 40.9014 84.1407 40.5461 84.8622 39.8356C85.5837 39.1251 85.9445 38.1196 85.9445 36.8193C85.9445 35.5189 85.5837 34.5067 84.8622 33.7828C84.1407 33.0589 83.1319 32.6969 81.8358 32.6969H80.2123V40.9014H81.8358ZM98.5225 43.8775L95.5963 38.5486H94.7745V43.8775H91.3473V29.761H97.0995C98.2085 29.761 99.1505 29.9554 99.9255 30.3441C100.714 30.7329 101.302 31.2692 101.689 31.9529C102.077 32.6232 102.27 33.3739 102.27 34.2051C102.27 35.1435 102.003 35.9814 101.469 36.7187C100.948 37.456 100.173 37.9789 99.1438 38.2872L102.391 43.8775H98.5225ZM94.7745 36.1154H96.8991C97.5271 36.1154 97.9947 35.9613 98.302 35.6529C98.6227 35.3446 98.7831 34.9089 98.7831 34.3458C98.7831 33.8096 98.6227 33.3873 98.302 33.079C97.9947 32.7706 97.5271 32.6165 96.8991 32.6165H94.7745V36.1154ZM104.422 43.8775H107.849V29.761H104.422V43.8775ZM109.271 29.761H112.918L116.406 40.4188L119.913 29.761H123.541L118.55 43.8775H114.261L109.271 29.761ZM128.401 35.3714V32.5159H133.592V29.761H124.973V43.8775H133.592V41.1226H128.401V38.0258H132.991V35.3714H128.401Z" fill="#41096D"/>
</g>
<defs>
<clipPath id="clip0_713_17624">
<rect width="134" height="71" fill="white"/>
</clipPath>
</defs>
</svg>
