<svg width="452" height="482" viewBox="0 0 452 482" fill="none" xmlns="http://www.w3.org/2000/svg">
<path d="M102.974 64.4953H61.2085L60 60.0001H101.766L102.974 64.4953Z" fill="#DCE1FF"/>
<path d="M102.967 78.9906H61.2085L60 74.4953H101.759L102.967 78.9906Z" fill="#DCE1FF"/>
<path d="M102.967 93.4859H61.2085L60 88.9906H101.759L102.967 93.4859Z" fill="#DCE1FF"/>
<path d="M291.696 165.366C293.134 165.366 294.299 164.201 294.299 162.763C294.299 161.326 293.134 160.16 291.696 160.16C290.259 160.16 289.093 161.326 289.093 162.763C289.093 164.201 290.259 165.366 291.696 165.366Z" stroke="#1EFBFF" stroke-miterlimit="10"/>
<path d="M151.892 145.013C153.266 136.598 147.557 128.663 139.143 127.29C130.728 125.916 122.793 131.624 121.419 140.039C120.046 148.454 125.754 156.389 134.169 157.762C142.584 159.136 150.519 153.428 151.892 145.013Z" stroke="#1EFBFF" stroke-miterlimit="10"/>
<path d="M279.183 217.023L273.389 222.817L279.183 228.611L284.977 222.817L279.183 217.023Z" stroke="#1EFBFF" stroke-miterlimit="10"/>
<path d="M194.985 103.486L192.66 105.81L194.985 108.134L197.309 105.81L194.985 103.486Z" stroke="#1EFBFF" stroke-miterlimit="10"/>
<path d="M249.306 166.481L253.848 171.03" stroke="#1EFBFF" stroke-miterlimit="10"/>
<path d="M253.848 166.481L249.306 171.03" stroke="#1EFBFF" stroke-miterlimit="10"/>
<path d="M346.669 120.493L351.21 125.041" stroke="#1EFBFF" stroke-miterlimit="10"/>
<path d="M351.21 120.493L346.669 125.041" stroke="#1EFBFF" stroke-miterlimit="10"/>
<path d="M369.703 315.536H82.2905V342.023H369.703V315.536Z" fill="#0E42E5"/>
<path d="M392 340.164H60V392.567H392V340.164Z" fill="#4361EE"/>
<path d="M60 247.669H73.1738V235.551H89.7671V224.163H125.663V248.393L60 282.648V247.669Z" fill="#082A9B"/>
<path d="M125.663 248.393H107.303L60 275.338V282.648L125.663 248.393Z" fill="#0D165B"/>
<path d="M125.663 224.164H107.303V248.393H125.663V224.164Z" fill="#1F4CFF"/>
<path d="M106.374 254.05H101.082V315.53H106.374V254.05Z" fill="#0D165B"/>
<path d="M74.6146 273.99H69.3225V338.219H74.6146V273.99Z" fill="#0D165B"/>
<path d="M119.023 251.102H113.731V315.53H119.023V251.102Z" fill="#0D165B"/>
<path d="M158.996 332.17L135.576 242.868H211.12L158.996 332.17Z" fill="#0CC1C1"/>
<path d="M182.694 242.868H146.798L164.766 300.092H177.714L200.157 261.646L182.694 242.868Z" fill="#04A5A0"/>
<path d="M259.837 273.711H169.62L131.772 141.256H221.989L259.837 273.711Z" fill="white"/>
<path d="M174.527 182.564H150.696L140.696 147.578H164.527L174.527 182.564Z" fill="#B9C3EF"/>
<path d="M215.031 152.073H173.265L172.057 147.578H213.822L215.031 152.073Z" fill="#B9C3EF"/>
<path d="M217.687 161.196H175.928L174.719 156.701H216.478L217.687 161.196Z" fill="#B9C3EF"/>
<path d="M220.349 170.32H178.59L177.382 165.824H219.141L220.349 170.32Z" fill="#B9C3EF"/>
<path d="M223.012 179.443H181.246L180.038 174.948H221.803L223.012 179.443Z" fill="#B9C3EF"/>
<path d="M225.675 188.566H183.909L182.701 184.071H224.466L225.675 188.566Z" fill="#B9C3EF"/>
<path d="M228.331 197.69H186.572L185.363 193.195H227.122L228.331 197.69Z" fill="#B9C3EF"/>
<path d="M276.49 292.974H186.273L148.425 160.519H238.642L276.49 292.974Z" fill="#DCE1FF"/>
<path d="M192.455 203.148H168.624L158.624 168.162H182.455L192.455 203.148Z" fill="#B9C3EF"/>
<path d="M232.959 172.657H191.193L189.985 168.162H231.75L232.959 172.657Z" fill="#B9C3EF"/>
<path d="M235.615 181.78H193.856L192.647 177.285H234.406L235.615 181.78Z" fill="#B9C3EF"/>
<path d="M238.277 190.904H196.518L195.31 186.408H237.069L238.277 190.904Z" fill="#B9C3EF"/>
<path d="M240.94 200.027H199.174L197.966 195.532H239.732L240.94 200.027Z" fill="#B9C3EF"/>
<path d="M243.603 209.15H201.837L200.629 204.655H242.394L243.603 209.15Z" fill="#B9C3EF"/>
<path d="M246.259 218.274H204.5L203.291 213.779H245.05L246.259 218.274Z" fill="#B9C3EF"/>
<path d="M279.107 263.114L255.296 179.775H165.078L202.926 312.236H262.241L279.107 263.114Z" fill="white"/>
<path d="M282.375 222.404H258.544L248.544 187.418H272.375L282.375 222.404Z" fill="#DCE1FF"/>
<path d="M322.879 191.913H281.114L279.905 187.418H321.671L322.879 191.913Z" fill="#DCE1FF"/>
<path d="M325.535 201.036H283.776L282.568 196.541H324.327L325.535 201.036Z" fill="#DCE1FF"/>
<path d="M328.198 210.16H286.439L285.23 205.665H326.989L328.198 210.16Z" fill="#DCE1FF"/>
<path d="M330.861 219.284H289.095L287.886 214.788H329.652L330.861 219.284Z" fill="#DCE1FF"/>
<path d="M333.523 228.407H291.758L290.549 223.911H332.315L333.523 228.407Z" fill="#DCE1FF"/>
<path d="M336.179 237.53H294.42L293.212 233.035H334.971L336.179 237.53Z" fill="#DCE1FF"/>
<path d="M227.295 240.053L223.875 233.473H194.533L192.196 240.053L158.996 332.17H269.047L302.247 240.053H227.295Z" fill="#1EFBFF"/>
<path d="M214.42 288.1H217.567L216.823 290.318H213.676L211.525 296.719H209.088L214.307 281.207H220.754L220.011 283.425H216L214.426 288.1H214.42Z" fill="#006CFF"/>
<path d="M225.914 281.207H228.351L223.132 296.719H220.695L225.914 281.207Z" fill="#006CFF"/>
<path d="M234.114 281.207H236.551L232.076 294.501H236.086L235.342 296.719H228.895L234.114 281.207V281.207Z" fill="#006CFF"/>
<path d="M245.854 287.748H249.2L248.456 289.966H245.11L243.583 294.508H247.792L247.049 296.725H240.402L245.621 281.214H252.268L251.524 283.432H247.314L245.86 287.755L245.854 287.748Z" fill="#006CFF"/>
<path d="M261.099 281.035C263.469 281.035 264.213 282.456 263.377 284.933L263.211 285.417H260.906L261.126 284.773C261.497 283.664 261.199 283.246 260.422 283.246C259.645 283.246 259.061 283.664 258.689 284.773C257.613 287.967 262.175 288.565 260.687 292.994C259.851 295.477 258.138 296.891 255.741 296.891C253.344 296.891 252.587 295.47 253.417 292.994L253.735 292.044H256.039L255.668 293.153C255.296 294.262 255.648 294.66 256.424 294.66C257.201 294.66 257.819 294.262 258.191 293.153C259.266 289.966 254.698 289.362 256.192 284.933C257.029 282.449 258.722 281.035 261.092 281.035H261.099Z" fill="#006CFF"/>
<path d="M305.972 215.252L332.134 249.223C332.134 249.223 336.729 248.691 339.81 244.156L312.513 210.08L305.972 215.252V215.252Z" fill="#0D165B"/>
<path d="M301.55 179.954C289.625 168.029 275.515 162.81 270.037 168.288C268.861 169.463 268.184 171.03 267.952 172.889C274.771 172.039 285.494 177.265 294.863 186.64C304.232 196.009 309.465 206.726 308.615 213.552C310.474 213.32 312.048 212.643 313.216 211.467C318.701 205.983 313.475 191.873 301.55 179.954V179.954Z" fill="#FCCB01"/>
<path opacity="0.3" d="M309.866 214.809C315.348 209.327 310.127 195.218 298.204 183.295C286.281 171.372 272.171 166.15 266.689 171.632C261.208 177.114 266.429 191.223 278.352 203.146C290.275 215.069 304.385 220.291 309.866 214.809Z" fill="white"/>
<g opacity="0.3">
<path d="M268.164 173.108C269.08 172.046 270.448 171.402 271.843 171.13C273.25 170.864 274.698 170.917 276.099 171.15C278.907 171.601 281.557 172.683 284.053 173.972C286.543 175.286 288.874 176.86 291.052 178.62C293.237 180.372 295.242 182.331 297.075 184.43C294.97 182.604 292.805 180.87 290.574 179.244C288.33 177.637 286.019 176.13 283.582 174.861C281.158 173.58 278.615 172.504 275.953 171.913C274.625 171.628 273.263 171.475 271.916 171.608C270.561 171.714 269.24 172.205 268.171 173.102L268.164 173.108Z" fill="white"/>
</g>
<path d="M282.154 199.35C270.78 187.975 265.8 174.516 271.026 169.284L270.03 168.288L263.343 174.974C257.859 180.459 263.084 194.569 275.01 206.488C286.935 218.413 301.045 223.632 306.523 218.154L313.21 211.468L312.214 210.472C306.981 215.704 293.522 210.717 282.148 199.343L282.154 199.35Z" fill="#FCCB01"/>
<path d="M301.55 179.954C289.625 168.029 275.515 162.81 270.037 168.288C264.552 173.772 269.778 187.882 281.703 199.801C293.628 211.726 307.738 216.945 313.216 211.467C318.701 205.983 313.475 191.873 301.55 179.954ZM312.36 210.146C307.287 215.219 293.994 210.159 282.672 198.832C271.351 187.51 266.285 174.217 271.365 169.144C276.444 164.071 289.731 169.131 301.052 180.452C312.373 191.773 317.44 205.066 312.36 210.139V210.146Z" fill="#FFEEA9"/>
<path d="M326.656 227.736L322.818 237.131L332.127 249.223C332.127 249.223 336.722 248.691 339.803 244.156L326.649 227.736H326.656Z" fill="#0D165B"/>
<path d="M102.974 407.062H61.2085L60 402.567H101.766L102.974 407.062Z" fill="#DCE1FF"/>
<path d="M102.967 421.558H61.2085L60 417.062H101.759L102.967 421.558Z" fill="#DCE1FF"/>
<rect x="0.5" y="0.500061" width="451" height="480.558" rx="19.5" stroke="#EAE9E9"/>
</svg>
