<svg width="24" height="24" viewBox="0 0 24 24" fill="none" xmlns="http://www.w3.org/2000/svg">
<path d="M12.6029 13.9813V15.5554C11.9148 15.3144 11.1783 15.2405 10.4554 15.3399C9.73246 15.4392 9.04414 15.709 8.44825 16.1265C7.85236 16.544 7.36629 17.0971 7.03086 17.7392C6.69543 18.3814 6.52044 19.0939 6.52058 19.817L5 19.8162C4.99976 18.8965 5.21206 17.9889 5.62062 17.163C6.02919 16.3371 6.62317 15.6149 7.35707 15.0516C8.09096 14.4883 8.94528 14.0989 9.85458 13.9132C10.7639 13.7276 11.704 13.7506 12.6029 13.9805V13.9813ZM11.0823 13.0383C8.56196 13.0383 6.52058 11.016 6.52058 8.51914C6.52058 6.02231 8.56196 4 11.0823 4C13.6027 4 15.6441 6.02231 15.6441 8.51914C15.6441 11.016 13.6027 13.0383 11.0823 13.0383ZM11.0823 11.5319C12.7626 11.5319 14.1235 10.1837 14.1235 8.51914C14.1235 6.85459 12.7626 5.50638 11.0823 5.50638C9.40209 5.50638 8.04116 6.85459 8.04116 8.51914C8.04116 10.1837 9.40209 11.5319 11.0823 11.5319ZM16.0896 16.051L14.699 14.6742L15.7748 13.6084L19 16.8042L15.7748 20L14.699 18.9342L16.0896 17.5574H13.3632V16.051H16.0896Z" fill="#323232"/>
<path d="M12.6029 13.9813V15.5554C11.9148 15.3144 11.1783 15.2405 10.4554 15.3399C9.73246 15.4392 9.04414 15.709 8.44825 16.1265C7.85236 16.544 7.36629 17.0971 7.03086 17.7392C6.69543 18.3814 6.52044 19.0939 6.52058 19.817L5 19.8162C4.99976 18.8965 5.21206 17.9889 5.62062 17.163C6.02919 16.3371 6.62317 15.6149 7.35707 15.0516C8.09096 14.4883 8.94528 14.0989 9.85458 13.9132C10.7639 13.7276 11.704 13.7506 12.6029 13.9805V13.9813ZM11.0823 13.0383C8.56196 13.0383 6.52058 11.016 6.52058 8.51914C6.52058 6.02231 8.56196 4 11.0823 4C13.6027 4 15.6441 6.02231 15.6441 8.51914C15.6441 11.016 13.6027 13.0383 11.0823 13.0383ZM11.0823 11.5319C12.7626 11.5319 14.1235 10.1837 14.1235 8.51914C14.1235 6.85459 12.7626 5.50638 11.0823 5.50638C9.40209 5.50638 8.04116 6.85459 8.04116 8.51914C8.04116 10.1837 9.40209 11.5319 11.0823 11.5319ZM16.0896 16.051L14.699 14.6742L15.7748 13.6084L19 16.8042L15.7748 20L14.699 18.9342L16.0896 17.5574H13.3632V16.051H16.0896Z" fill="#323232"/>
</svg>
