<svg width="24" height="24" viewBox="0 0 24 24" fill="none" xmlns="http://www.w3.org/2000/svg">
<path d="M4 4L20 20M4.88889 7.55556H7.55556M11.1111 7.55556H19.1111M10.2222 11.1111V16.4444M13.7778 13.7778V16.4444M5.77778 7.55556L6.66667 18.2222C6.66667 18.6937 6.85397 19.1459 7.18737 19.4793C7.52076 19.8127 7.97295 20 8.44444 20H15.5556C16.0271 20 16.4792 19.8127 16.8126 19.4793C17.146 19.1459 17.3333 18.6937 17.3333 18.2222L17.4018 17.4018M17.6747 14.1093L18.2222 7.55556M9.33333 5.77778V4.88889C9.33333 4.65314 9.42698 4.42705 9.59368 4.26035C9.76038 4.09365 9.98647 4 10.2222 4H13.7778C14.0135 4 14.2396 4.09365 14.4063 4.26035C14.573 4.42705 14.6667 4.65314 14.6667 4.88889V7.55556" stroke="#323232" stroke-width="2" stroke-linecap="round" stroke-linejoin="round"/>
<path d="M4 4L20 20M4.88889 7.55556H7.55556M11.1111 7.55556H19.1111M10.2222 11.1111V16.4444M13.7778 13.7778V16.4444M5.77778 7.55556L6.66667 18.2222C6.66667 18.6937 6.85397 19.1459 7.18737 19.4793C7.52076 19.8127 7.97295 20 8.44444 20H15.5556C16.0271 20 16.4792 19.8127 16.8126 19.4793C17.146 19.1459 17.3333 18.6937 17.3333 18.2222L17.4018 17.4018M17.6747 14.1093L18.2222 7.55556M9.33333 5.77778V4.88889C9.33333 4.65314 9.42698 4.42705 9.59368 4.26035C9.76038 4.09365 9.98647 4 10.2222 4H13.7778C14.0135 4 14.2396 4.09365 14.4063 4.26035C14.573 4.42705 14.6667 4.65314 14.6667 4.88889V7.55556" stroke="black" stroke-opacity="0.2" stroke-width="2" stroke-linecap="round" stroke-linejoin="round"/>
</svg>
