<svg width="10" height="10" viewBox="0 0 10 10" fill="none" xmlns="http://www.w3.org/2000/svg">
<path d="M1.49101 0.245447L5 3.75443L8.49081 0.263629C8.56791 0.181556 8.6608 0.115901 8.7639 0.0705999C8.867 0.0252991 8.97818 0.00128573 9.09079 0C9.33189 0 9.56311 0.0957761 9.73359 0.266259C9.90408 0.436741 9.99985 0.667965 9.99985 0.909064C10.002 1.02052 9.98129 1.13123 9.93909 1.2344C9.89688 1.33757 9.83403 1.43104 9.75441 1.50905L6.21815 4.99985L9.75441 8.53611C9.90423 8.68269 9.99209 8.88118 9.99985 9.09064C9.99985 9.33174 9.90408 9.56296 9.73359 9.73345C9.56311 9.90393 9.33189 9.9997 9.09079 9.9997C8.97493 10.0045 8.85934 9.98517 8.75136 9.94292C8.64338 9.90067 8.54536 9.83642 8.46354 9.75426L5 6.24527L1.5001 9.74517C1.42329 9.8245 1.33153 9.88784 1.23011 9.93153C1.1287 9.97522 1.01963 9.99839 0.909212 9.9997C0.668113 9.9997 0.436889 9.90393 0.266407 9.73345C0.095924 9.56296 0.000147911 9.33174 0.000147911 9.09064C-0.00197157 8.97919 0.0187068 8.86848 0.0609142 8.7653C0.103122 8.66213 0.165968 8.56867 0.245595 8.49066L3.78185 4.99985L0.245595 1.46359C0.0957678 1.31701 0.00791097 1.11852 0.000147911 0.909064C0.000147911 0.667965 0.095924 0.436741 0.266407 0.266259C0.436889 0.0957761 0.668113 0 0.909212 0C1.12739 0.00272719 1.33647 0.0909064 1.49101 0.245447Z" fill="#626262"/>
</svg>
