<svg width="64" height="80" viewBox="0 0 64 80" fill="none" xmlns="http://www.w3.org/2000/svg">
<path d="M6.73798 64.7884C9.32035 64.2329 10.9635 61.6892 10.408 59.1068C9.85246 56.5244 7.30872 54.8813 4.72634 55.4368C2.14397 55.9923 0.500852 58.536 1.05635 61.1184C1.61185 63.7008 4.1556 65.3439 6.73798 64.7884Z" fill="#00A0DC"/>
<path d="M5.69604 65.8199C2.55577 65.8199 0 63.2642 0 60.1239C0 56.9836 2.55577 54.4279 5.69604 54.4279C8.83631 54.4279 11.3921 56.9836 11.3921 60.1239C11.3921 63.2642 8.83631 65.8199 5.69604 65.8199ZM5.69604 56.2544C3.56178 56.2544 1.82655 57.9896 1.82655 60.1239C1.82655 62.2581 3.56178 63.9934 5.69604 63.9934C7.8303 63.9934 9.56553 62.2581 9.56553 60.1239C9.56553 57.9896 7.8303 56.2544 5.69604 56.2544Z" fill="#231F20"/>
<path d="M40.7979 0.912692H17.5261C11.1739 0.912692 6.02588 6.06218 6.02588 12.413V67.5833C6.02588 73.9355 11.1754 79.0836 17.5261 79.0836H50.7273C57.0795 79.0836 62.2275 73.9341 62.2275 67.5833V22.341L40.7979 0.911285V0.912692Z" fill="white"/>
<path d="M50.7258 79.9986H17.5246C10.6793 79.9986 5.11108 74.4304 5.11108 67.585V12.4147C5.11108 5.56932 10.6793 0.00112915 17.5246 0.00112915H40.7963C41.038 0.00112915 41.2712 0.0966583 41.4427 0.268073L62.8724 21.6978C63.0438 21.8692 63.1393 22.101 63.1393 22.3441V67.5865C63.1393 74.4318 57.5711 80 50.7258 80V79.9986ZM17.5246 1.82768C11.6867 1.82768 6.93764 6.57674 6.93764 12.4147V67.585C6.93764 73.423 11.6867 78.1721 17.5246 78.1721H50.7258C56.5637 78.1721 61.3128 73.423 61.3128 67.585V22.7221L40.4184 1.82768H17.5246Z" fill="#231F20"/>
<path d="M40.7983 0.912109L62.228 22.3418H45.3689C42.8455 22.3418 40.7983 20.2961 40.7983 17.7712V0.912109Z" fill="#DCDDDE"/>
<path d="M62.2293 23.2558H45.3674C42.3438 23.2558 39.8835 20.7956 39.8835 17.7719V0.912815C39.8835 0.543289 40.1055 0.210294 40.447 0.0697901C40.7884 -0.0721192 41.1804 0.00655084 41.4417 0.267889L62.8293 21.6555C63.0204 21.8227 63.1412 22.0685 63.1412 22.3425C63.1412 22.8469 62.7323 23.2558 62.2279 23.2558H62.2293ZM41.7101 3.11872V17.7733C41.7101 19.7896 43.3498 21.4306 45.3674 21.4306H60.022L41.7115 3.12013L41.7101 3.11872Z" fill="#231F20"/>
<path d="M6.13043 32.5438C3.28944 32.5438 0.986572 34.8467 0.986572 37.6877V59.2284H1.08071C1.53875 56.8567 3.62384 55.0638 6.13043 55.0638H57.9315V32.5438H6.13043Z" fill="#00A0DC"/>
<path d="M1.08017 60.1411H0.986031C0.481621 60.1411 0.0727539 59.7322 0.0727539 59.2278V37.6871C0.0727539 34.3473 2.7901 31.63 6.12989 31.63H57.931C58.4354 31.63 58.8443 32.0389 58.8443 32.5433V55.0633C58.8443 55.5677 58.4354 55.9765 57.931 55.9765H6.12989C4.10663 55.9765 2.36016 57.4167 1.97659 59.4006C1.89369 59.8306 1.51714 60.1411 1.08017 60.1411ZM6.12989 33.4566C3.79752 33.4566 1.89931 35.3548 1.89931 37.6871V55.874C3.00086 54.8005 4.50285 54.15 6.12989 54.15H57.0177V33.4566H6.12989Z" fill="#231F20"/>
<path d="M17.281 49.1909V49.1558C17.281 48.9141 17.3681 48.7413 17.5227 48.5502L25.1155 38.899H18.0931C17.7475 38.899 17.4707 38.6222 17.4707 38.2934C17.4707 37.9478 17.7475 37.671 18.0931 37.671H26.3421C26.6709 37.671 26.9646 37.9478 26.9646 38.2597V38.2948C26.9646 38.5365 26.8774 38.7093 26.7229 38.9004L19.13 48.5516H26.4292C26.7749 48.5516 27.0517 48.8284 27.0517 49.1572C27.0517 49.5028 26.7749 49.7796 26.4292 49.7796H17.9203C17.5747 49.7796 17.281 49.5028 17.281 49.1909Z" fill="white"/>
<path d="M29.9419 38.2782C29.9419 37.8974 30.2538 37.5869 30.6163 37.5869C30.9788 37.5869 31.3076 37.8988 31.3076 38.2782V49.1743C31.3076 49.5551 30.9957 49.8656 30.6163 49.8656C30.237 49.8656 29.9419 49.5536 29.9419 49.1743V38.2782Z" fill="white"/>
<path d="M34.8521 38.3634C34.8521 37.9826 35.164 37.6721 35.5265 37.6721H39.3833C42.1161 37.6721 43.9146 39.1249 43.9146 41.5121V41.5472C43.9146 44.1592 41.7353 45.508 39.1585 45.508H36.2177V49.1752C36.2177 49.5559 35.9058 49.8664 35.5265 49.8664C35.1471 49.8664 34.8521 49.5545 34.8521 49.1752V38.3662V38.3634ZM39.2105 44.2603C41.2169 44.2603 42.5306 43.1883 42.5306 41.5964V41.5613C42.5306 39.8317 41.2338 38.9324 39.2793 38.9324H36.2177V44.2589H39.2091L39.2105 44.2603Z" fill="white"/>
</svg>
