<svg width="80" height="80" viewBox="0 0 80 80" fill="none" xmlns="http://www.w3.org/2000/svg">
<path d="M7.92261 8.79251H72.0876V71.2075H7.92261V8.79251Z" fill="#1C0A00"/>
<path d="M7.9225 8.7925H72.0875V71.2075H7.9225V8.7925ZM5 74.125H75V5.875H5V74.125ZM50.85 30.2C50.85 29.9675 50.9375 29.85 51.2 29.85H55.78C56.0125 29.85 56.13 29.9375 56.13 30.2V53.2125C56.13 53.445 56.0725 53.5625 55.78 53.5625H51.2625C50.97 53.5625 50.8825 53.4175 50.8825 53.1825V30.2H50.8525H50.85ZM50.53 23.58C50.53 22.791 50.8434 22.0343 51.4014 21.4764C51.9593 20.9184 52.716 20.605 53.505 20.605C54.294 20.605 55.0507 20.9184 55.6086 21.4764C56.1666 22.0343 56.48 22.791 56.48 23.58C56.5088 23.9831 56.4497 24.3876 56.3067 24.7655C56.1637 25.1434 55.9402 25.4858 55.6517 25.7688C55.3633 26.0517 55.0167 26.2686 54.6361 26.4044C54.2555 26.5402 53.8499 26.5915 53.4475 26.555C53.0532 26.5797 52.6582 26.5192 52.2894 26.3776C51.9206 26.2359 51.5866 26.0165 51.3103 25.7342C51.0339 25.4519 50.8216 25.1133 50.6878 24.7416C50.554 24.3699 50.5019 23.9737 50.535 23.58H50.53ZM37.405 39.7975C36.5875 36.5475 34.655 29.5025 33.935 26.09H33.8775C33.265 29.5025 31.72 35.2775 30.495 39.7975H37.405ZM29.2975 44.5225L26.9925 53.2725C26.935 53.505 26.8475 53.565 26.555 53.565H22.2725C21.98 53.565 21.9225 53.4775 21.98 53.1275L30.2625 24.1275C30.4641 23.3368 30.5624 22.5234 30.555 21.7075C30.555 21.5025 30.6425 21.415 30.7875 21.415H36.9125C37.1175 21.415 37.205 21.4725 37.2625 21.7075L46.5375 53.1775C46.595 53.41 46.5375 53.5575 46.305 53.5575H41.4625C41.23 53.5575 41.0825 53.5 41.025 53.3075L38.6325 44.5275H29.3L29.2975 44.5225Z" fill="#FF7F18"/>
</svg>
