<svg width="24" height="24" viewBox="0 0 24 24" fill="none" xmlns="http://www.w3.org/2000/svg">
<path d="M5.2973 10.6C4.57946 10.6 4 11.2253 4 12C4 12.7747 4.57946 13.4 5.2973 13.4C6.01514 13.4 6.59459 12.7747 6.59459 12C6.59459 11.2253 6.01514 10.6 5.2973 10.6ZM5.2973 5C4.57946 5 4 5.62533 4 6.4C4 7.17467 4.57946 7.8 5.2973 7.8C6.01514 7.8 6.59459 7.17467 6.59459 6.4C6.59459 5.62533 6.01514 5 5.2973 5ZM5.2973 16.2C4.57946 16.2 4 16.8347 4 17.6C4 18.3653 4.58811 19 5.2973 19C6.00649 19 6.59459 18.3653 6.59459 17.6C6.59459 16.8347 6.01514 16.2 5.2973 16.2ZM7.89189 18.5333H20V16.6667H7.89189V18.5333ZM7.89189 12.9333H20V11.0667H7.89189V12.9333ZM7.89189 5.46667V7.33333H20V5.46667H7.89189Z" fill="#323232"/>
<path d="M5.2973 10.6C4.57946 10.6 4 11.2253 4 12C4 12.7747 4.57946 13.4 5.2973 13.4C6.01514 13.4 6.59459 12.7747 6.59459 12C6.59459 11.2253 6.01514 10.6 5.2973 10.6ZM5.2973 5C4.57946 5 4 5.62533 4 6.4C4 7.17467 4.57946 7.8 5.2973 7.8C6.01514 7.8 6.59459 7.17467 6.59459 6.4C6.59459 5.62533 6.01514 5 5.2973 5ZM5.2973 16.2C4.57946 16.2 4 16.8347 4 17.6C4 18.3653 4.58811 19 5.2973 19C6.00649 19 6.59459 18.3653 6.59459 17.6C6.59459 16.8347 6.01514 16.2 5.2973 16.2ZM7.89189 18.5333H20V16.6667H7.89189V18.5333ZM7.89189 12.9333H20V11.0667H7.89189V12.9333ZM7.89189 5.46667V7.33333H20V5.46667H7.89189Z" fill="black" fill-opacity="0.2"/>
</svg>
