<svg width="17" height="16" viewBox="0 0 17 16" fill="none" xmlns="http://www.w3.org/2000/svg">
<path d="M11.275 9.92857V10.7857C11.2748 10.904 11.177 10.9998 11.0563 11H10.4V9.71429H11.0563C11.177 9.71448 11.2748 9.81033 11.275 9.92857ZM13.9 8.64286V12.0714C13.9 12.1283 13.877 12.1828 13.836 12.223C13.7949 12.2631 13.7393 12.2857 13.6813 12.2857H3.61877C3.49797 12.2857 3.40002 12.1898 3.40002 12.0714V8.64286C3.40002 8.52452 3.49797 8.42857 3.61877 8.42857H13.6813C13.7393 8.42857 13.7949 8.45115 13.836 8.49133C13.877 8.53151 13.9 8.58603 13.9 8.64286ZM7.33752 9.71429C7.33743 9.60064 7.29123 9.49168 7.2093 9.41132C7.12727 9.33106 7.01604 9.28581 6.90003 9.28572H5.80628C5.68548 9.28572 5.58753 9.38167 5.58753 9.5V11.2143C5.58753 11.3326 5.68548 11.4286 5.80628 11.4286C5.92708 11.4286 6.02503 11.3326 6.02503 11.2143V10.5714H6.90003C7.01604 10.5713 7.12727 10.5261 7.2093 10.4458C7.29123 10.3655 7.33743 10.2565 7.33752 10.1429V9.71429ZM8.21252 10.1429V9.71429H9.30627C9.42707 9.71429 9.52502 9.61833 9.52502 9.5C9.52502 9.38167 9.42707 9.28571 9.30627 9.28571H8.21252C8.09651 9.28581 7.98528 9.33106 7.90325 9.41132C7.82132 9.49168 7.77512 9.60064 7.77503 9.71428V10.1429C7.77512 10.2565 7.82132 10.3655 7.90325 10.4458C7.98528 10.5261 8.09651 10.5713 8.21252 10.5714H9.08752V11H7.99377C7.87297 11 7.77502 11.0959 7.77502 11.2143C7.77502 11.3326 7.87297 11.4286 7.99377 11.4286H9.08752C9.20354 11.4285 9.31477 11.3832 9.3968 11.303C9.47873 11.2226 9.52492 11.1136 9.52502 11V10.5714C9.52492 10.4578 9.47873 10.3488 9.3968 10.2685C9.31477 10.1882 9.20354 10.143 9.08752 10.1429H8.21252ZM11.7125 9.92857C11.7123 9.7581 11.6431 9.5947 11.5201 9.47416C11.3971 9.35372 11.2303 9.2859 11.0563 9.28571H10.1813C10.0605 9.28571 9.96252 9.38166 9.96252 9.49999V11.2143C9.96252 11.2711 9.98556 11.3256 10.0266 11.3658C10.0676 11.406 10.1233 11.4286 10.1813 11.4286H11.0563C11.2303 11.4284 11.3971 11.3605 11.5201 11.2401C11.6431 11.1196 11.7123 10.9562 11.7125 10.7857V9.92857ZM6.02502 10.1429H6.90002V9.71429H6.02502V10.1429ZM13.025 8H4.27502V2.21429C4.27502 2.09595 4.37297 2 4.49377 2H10.4V4.35714C10.4 4.41397 10.4231 4.4685 10.4641 4.50867C10.5051 4.54885 10.5608 4.57143 10.6188 4.57143H13.025V8ZM11.7125 6.92857C11.7125 6.87175 11.6895 6.81722 11.6485 6.77704C11.6074 6.73686 11.5518 6.71429 11.4938 6.71429H5.80627C5.68547 6.71429 5.58752 6.81024 5.58752 6.92857C5.58752 7.04691 5.68547 7.14286 5.80627 7.14286H11.4938C11.5518 7.14286 11.6074 7.12028 11.6485 7.0801C11.6895 7.03992 11.7125 6.98539 11.7125 6.92857ZM11.7125 5.64286C11.7125 5.58603 11.6895 5.5315 11.6485 5.49133C11.6074 5.45115 11.5518 5.42857 11.4938 5.42857H5.80627C5.68547 5.42857 5.58752 5.52452 5.58752 5.64286C5.58752 5.76119 5.68547 5.85714 5.80627 5.85714H11.4938C11.5518 5.85714 11.6074 5.83457 11.6485 5.79439C11.6895 5.75421 11.7125 5.69968 11.7125 5.64286ZM10.8375 2.12563V4.14298H12.8969L10.8375 2.12563ZM4.27502 13.7857C4.27502 13.8425 4.29807 13.8971 4.33909 13.9372C4.3801 13.9774 4.43577 14 4.49377 14H12.8063C12.8643 14 12.9199 13.9774 12.961 13.9372C13.002 13.8971 13.025 13.8425 13.025 13.7857V12.7143H4.27502V13.7857Z" fill="#070444"/>
</svg>
