<svg width="17" height="16" viewBox="0 0 17 16" fill="none" xmlns="http://www.w3.org/2000/svg">
<path d="M13.3812 8.42857H3.31873C3.19793 8.42857 3.09998 8.52452 3.09998 8.64286V12.0714C3.09998 12.1283 3.12302 12.1828 3.16404 12.223C3.20505 12.2631 3.26072 12.2857 3.31873 12.2857H13.3812C13.4392 12.2857 13.4949 12.2631 13.5359 12.223C13.5769 12.1828 13.6 12.1283 13.6 12.0714V8.64286C13.6 8.58603 13.5769 8.5315 13.5359 8.49133C13.4949 8.45115 13.4392 8.42857 13.3812 8.42857ZM7.03748 10.1429C7.03738 10.2565 6.99119 10.3655 6.90925 10.4458C6.82722 10.5261 6.71599 10.5713 6.59998 10.5714H5.72498V11.2143C5.72498 11.3326 5.62703 11.4286 5.50623 11.4286C5.38543 11.4286 5.28748 11.3326 5.28748 11.2143V9.5C5.28748 9.38166 5.38543 9.28571 5.50623 9.28571H6.59998C6.71599 9.28581 6.82722 9.33106 6.90925 9.41132C6.99119 9.49167 7.03738 9.60064 7.03748 9.71428V10.1429ZM9.22498 10.7857C9.22478 10.9562 9.15554 11.1196 9.03259 11.2401C8.90955 11.3606 8.74274 11.4284 8.56872 11.4286H7.69372C7.57292 11.4286 7.47497 11.3326 7.47497 11.2143V9.50001C7.47497 9.38167 7.57292 9.28572 7.69372 9.28572H8.56872C8.74274 9.28591 8.90954 9.35374 9.03259 9.47418C9.15554 9.59471 9.22478 9.75811 9.22498 9.92859V10.7857ZM11.1937 10.1429C11.3145 10.1429 11.4125 10.2388 11.4125 10.3571C11.4125 10.4755 11.3145 10.5714 11.1937 10.5714H10.1V11.2143C10.1 11.3326 10.002 11.4286 9.88123 11.4286C9.76043 11.4286 9.66248 11.3326 9.66248 11.2143V9.5C9.66248 9.38167 9.76043 9.28571 9.88123 9.28571H11.1937C11.3145 9.28571 11.4125 9.38167 11.4125 9.5C11.4125 9.61833 11.3145 9.71429 11.1937 9.71429H10.1V10.1429H11.1937ZM8.78748 9.92857V10.7857C8.78738 10.904 8.68953 10.9999 8.56873 11H7.91248V9.71429H8.56873C8.68953 9.71438 8.78738 9.81024 8.78748 9.92857ZM5.72498 9.71429H6.59998V10.1429H5.72498V9.71429ZM12.725 4.57143H10.3187C10.1979 4.57143 10.1 4.47548 10.1 4.35714V2H4.19373C4.07293 2 3.97498 2.09595 3.97498 2.21429V8H12.725V4.57143ZM11.1937 7.14286H5.50623C5.38543 7.14286 5.28748 7.04691 5.28748 6.92857C5.28748 6.81024 5.38543 6.71429 5.50623 6.71429H11.1937C11.3145 6.71429 11.4125 6.81024 11.4125 6.92857C11.4125 7.04691 11.3145 7.14286 11.1937 7.14286ZM11.1937 5.85714H5.50623C5.38543 5.85714 5.28748 5.76119 5.28748 5.64286C5.28748 5.52452 5.38543 5.42857 5.50623 5.42857H11.1937C11.3145 5.42857 11.4125 5.52452 11.4125 5.64286C11.4125 5.76119 11.3145 5.85714 11.1937 5.85714ZM12.5969 4.14286H10.5375V2.12551L12.5969 4.14286ZM3.97485 12.7143H12.7249V13.7857C12.7249 13.8425 12.7018 13.8971 12.6608 13.9372C12.6198 13.9774 12.5641 14 12.5061 14H4.1936C4.0728 14 3.97485 13.904 3.97485 13.7857V12.7143Z" fill="#FF2121"/>
</svg>
