<svg width="17" height="16" viewBox="0 0 17 16" fill="none" xmlns="http://www.w3.org/2000/svg">
<path d="M8.11255 10.1103L8.28901 10.5714H7.93609L8.11255 10.1103ZM13.8 8.64286V12.0714C13.8 12.1283 13.777 12.1828 13.736 12.223C13.695 12.2631 13.6393 12.2857 13.5813 12.2857H3.5188C3.398 12.2857 3.30005 12.1898 3.30005 12.0714V8.64286C3.30005 8.52452 3.398 8.42857 3.5188 8.42857H13.5813C13.6393 8.42857 13.695 8.45115 13.736 8.49133C13.777 8.53151 13.8 8.58603 13.8 8.64286ZM8.9738 11.1391L8.31755 9.42482C8.28552 9.34111 8.20388 9.28563 8.11267 9.28563C8.02146 9.28563 7.93981 9.34111 7.90778 9.42482L7.25153 11.1391C7.20915 11.2499 7.26647 11.3734 7.37966 11.415C7.49274 11.4565 7.61882 11.4004 7.66131 11.2895L7.77215 11H8.4532L8.56404 11.2895C8.60652 11.4004 8.73259 11.4565 8.84569 11.415C8.95887 11.3734 9.0162 11.2499 8.97381 11.1391H8.9738ZM9.86267 9.5C9.86267 9.38167 9.76472 9.28571 9.64392 9.28571C9.52312 9.28571 9.42517 9.38167 9.42517 9.5V11.2143C9.42517 11.3326 9.52312 11.4286 9.64392 11.4286C9.76472 11.4286 9.86267 11.3326 9.86267 11.2143V9.5ZM12.9252 8H4.17517V2.21429C4.17517 2.09595 4.27312 2 4.39392 2H10.3002V4.35714C10.3002 4.41397 10.3232 4.4685 10.3642 4.50867C10.4053 4.54885 10.4609 4.57143 10.5189 4.57143H12.9252V8ZM11.6127 6.92857C11.6127 6.87175 11.5896 6.81722 11.5486 6.77704C11.5076 6.73686 11.4519 6.71429 11.3939 6.71429H5.70642C5.58562 6.71429 5.48767 6.81024 5.48767 6.92857C5.48767 7.04691 5.58562 7.14286 5.70642 7.14286H11.3939C11.4519 7.14286 11.5076 7.12028 11.5486 7.0801C11.5896 7.03992 11.6127 6.98539 11.6127 6.92857ZM11.6127 5.64286C11.6127 5.58603 11.5896 5.5315 11.5486 5.49133C11.5076 5.45115 11.4519 5.42857 11.3939 5.42857H5.70642C5.58562 5.42857 5.48767 5.52452 5.48767 5.64286C5.48767 5.76119 5.58562 5.85714 5.70642 5.85714H11.3939C11.4519 5.85714 11.5076 5.83457 11.5486 5.79439C11.5896 5.75421 11.6127 5.69968 11.6127 5.64286ZM10.7377 2.12563V4.14298H12.797L10.7377 2.12563ZM4.17517 13.7857C4.17517 13.8425 4.19822 13.8971 4.23924 13.9372C4.28025 13.9774 4.33592 14 4.39392 14H12.7064C12.7644 14 12.8201 13.9774 12.8611 13.9372C12.9021 13.8971 12.9252 13.8425 12.9252 13.7857V12.7143H4.17517V13.7857Z" fill="#FF7F18"/>
</svg>
